<?xml version="1.0" encoding="utf-8"?>
<!-- Generator: Adobe Illustrator 14.0.0, SVG Export Plug-In . SVG Version: 6.00 Build 43363)  -->
<!DOCTYPE svg PUBLIC "-//W3C//DTD SVG 1.0//EN" "http://www.w3.org/TR/2001/REC-SVG-20010904/DTD/svg10.dtd">
<svg version="1.0" id="Layer_1" xmlns="http://www.w3.org/2000/svg" xmlns:xlink="http://www.w3.org/1999/xlink" x="0px" y="0px"
	 width="96.157px" height="100px" viewBox="0 0 96.157 100" enable-background="new 0 0 96.157 100" xml:space="preserve">
<path d="M61.489,33.858v0.812h34.668V0L80.822,15.336C72.235,7.655,60.913,2.974,48.513,2.974C21.763,2.974,0,24.736,0,51.487
	C0,78.237,21.763,100,48.513,100c13.375,0,25.503-5.44,34.289-14.226l-5.813-5.812c-7.294,7.297-17.367,11.814-28.475,11.814
	c-22.216,0-40.29-18.073-40.29-40.29s18.074-40.29,40.29-40.29c10.133,0,19.394,3.766,26.483,9.965L61.894,34.264L61.489,33.858z"/>
</svg>
